<svg width="276" height="276" viewBox="0 0 276 276" fill="none" xmlns="http://www.w3.org/2000/svg">
  <circle cx="138" cy="138" r="138" fill="#F5F5F5"/>
  <path d="M138 58C93.8172 58 58 93.8172 58 138C58 182.183 93.8172 218 138 218C182.183 218 218 182.183 218 138C218 93.8172 182.183 58 138 58ZM138 78C171.137 78 198 104.863 198 138C198 171.137 171.137 198 138 198C104.863 198 78 171.137 78 138C78 104.863 104.863 78 138 78Z" fill="#333333"/>
  <path d="M138 98C115.909 98 98 115.909 98 138C98 160.091 115.909 178 138 178C160.091 178 178 160.091 178 138C178 115.909 160.091 98 138 98ZM138 118C149.046 118 158 126.954 158 138C158 149.046 149.046 158 138 158C126.954 158 118 149.046 118 138C118 126.954 126.954 118 138 118Z" fill="#333333"/>
</svg>
